<svg viewBox="0 0 130 134" fill="none" xmlns="http://www.w3.org/2000/svg"><path
    d="M121.4 15.9c6.7 13.3 1.8 34.1 2.2 49.9.4 15.7 6 26.2 6.2 37.9.2 11.7-5.1 24.5-14.6 30-9.6 5.5-23.4 3.5-36.2 2.2-12.9-1.3-24.8-2.1-37.8-6.4a63.1 63.1 0 01-34.7-24.8c-7.6-12.6-8.7-29.8-.2-40.4 8.4-10.5 26.3-14.4 39.8-25.5C59.6 27.7 68.8 9.3 82.6 3c13.7-6.3 32-.5 38.8 12.9z"
    fill="url(#paint0_linear)"
  /><defs><linearGradient
      id="paint0_linear"
      x1=".4"
      y1="68.8"
      x2="126.4"
      y2="68.8"
      gradientUnits="userSpaceOnUse"
    ><stop stop-color="#0970C8" /><stop
        offset="1"
        stop-color="#542C96"
      /></linearGradient></defs></svg>
