<svg fill="none" viewBox="0 0 22 28" xmlns="http://www.w3.org/2000/svg">
  <path
    d="M3 7.8a3.1 3.1 0 016.2 0v2.5c.8-.3 1.5-1.1 1.5-2V2.1C10.7 1 9.7 0 8.6 0h-5C2.4 0 1.4 1 1.4 2.2v6c0 1 .7 1.8 1.5 2V7.9z"
    fill="url(#paint0_linear)"
  /><path
    d="M19 0h-5c-1.2 0-2.2 1-2.2 2.2v6c0 1.2 1 2.2 2.1 2.2h5c1.2 0 2.1-1 2.1-2.2v-6C21 1 20 0 19 0z"
    fill="url(#paint1_linear)"
  /><path
    d="M15 13.2c-.8 0-1.5.7-1.5 1.5v-.8a1.5 1.5 0 00-3 0v-.6a1.5 1.5 0 00-3 0V7.8a1.5 1.5 0 00-3 0v12.8l-1-4c-.1-.7-1-1.2-1.7-1-.9 0-1.4.6-1.2 1.4l1 4.6c.6 3.6 3.5 6.4 3.5 6.4h9.1c1.5-2.4 2.3-5 2.3-7.8v-5.5c0-.8-.6-1.5-1.5-1.5z"
    fill="url(#paint2_linear)"
  /><defs><linearGradient
      id="paint0_linear"
      x1="1.4"
      y1="5.1"
      x2="10.4"
      y2="5.1"
      gradientUnits="userSpaceOnUse"
    ><stop stop-color="#0970C8" /><stop
        offset="1"
        stop-color="#542C96"
      /></linearGradient><linearGradient
      id="paint1_linear"
      x1="11.8"
      y1="5.2"
      x2="20.8"
      y2="5.2"
      gradientUnits="userSpaceOnUse"
    ><stop stop-color="#0970C8" /><stop
        offset="1"
        stop-color="#542C96"
      /></linearGradient><linearGradient
      id="paint2_linear"
      x1=".5"
      y1="17.1"
      x2="16.1"
      y2="17.1"
      gradientUnits="userSpaceOnUse"
    ><stop stop-color="#0970C8" /><stop
        offset="1"
        stop-color="#542C96"
      /></linearGradient></defs>
</svg>
