<svg viewBox="0 0 24 24" fill="none" xmlns="http://www.w3.org/2000/svg"><path
    d="M15 21.2v1.2c0 .9.8 1.6 1.7 1.6h5.7c.9 0 1.6-.7 1.6-1.6v-1.2h-9z"
    fill="url(#paint0_linear)"
  /><path
    d="M24 19.8V11c0-.9-.7-1.6-1.6-1.6h-5.7c-.9 0-1.6.7-1.6 1.6v8.7H24z"
    fill="url(#paint1_linear)"
  /><path
    d="M16.7 8h5.9v-.7c0-1-.7-1.7-1.6-1.7h-8.5c-.9 0-1.6.8-1.6 1.7v11.4h2.8v-7.6a3 3 0 013-3z"
    fill="url(#paint2_linear)"
  /><path
    d="M13.7 20.2h-2.8v1.1c0 1 .7 1.7 1.6 1.7h1.2V20.2z"
    fill="url(#paint3_linear)"
  /><path
    d="M12.5 4.2H21c.4 0 .8.1 1.1.3v-2C22.1 1.3 21 0 19.5 0h-17A2.6 2.6 0 000 2.6v8.2h9.5V7.3a3 3 0 013-3z"
    fill="url(#paint4_linear)"
  /><path
    d="M0 12.2v.2C0 13.8 1.2 15 2.6 15h6.9v-2.8H0z"
    fill="url(#paint5_linear)"
  /><path
    d="M9.5 16.4H7.7l-.9 2.8c-1.1 0-2 1-2 2.1 0 .4.2.7.6.7h4"
    fill="url(#paint6_linear)"
  /><defs><linearGradient
      id="paint0_linear"
      x1="15.1"
      y1="22.6"
      x2="23.8"
      y2="22.6"
      gradientUnits="userSpaceOnUse"
    ><stop stop-color="#0970C8" /><stop
        offset="1"
        stop-color="#542C96"
      /></linearGradient><linearGradient
      id="paint1_linear"
      x1="15.1"
      y1="14.6"
      x2="23.8"
      y2="14.6"
      gradientUnits="userSpaceOnUse"
    ><stop stop-color="#0970C8" /><stop
        offset="1"
        stop-color="#542C96"
      /></linearGradient><linearGradient
      id="paint2_linear"
      x1="10.9"
      y1="12.2"
      x2="22.3"
      y2="12.2"
      gradientUnits="userSpaceOnUse"
    ><stop stop-color="#0970C8" /><stop
        offset="1"
        stop-color="#542C96"
      /></linearGradient><linearGradient
      id="paint3_linear"
      x1="10.9"
      y1="21.6"
      x2="13.7"
      y2="21.6"
      gradientUnits="userSpaceOnUse"
    ><stop stop-color="#0970C8" /><stop
        offset="1"
        stop-color="#542C96"
      /></linearGradient><linearGradient
      id="paint4_linear"
      x1="0"
      y1="5.4"
      x2="21.5"
      y2="5.4"
      gradientUnits="userSpaceOnUse"
    ><stop stop-color="#0970C8" /><stop
        offset="1"
        stop-color="#542C96"
      /></linearGradient><linearGradient
      id="paint5_linear"
      x1="0"
      y1="13.6"
      x2="9.2"
      y2="13.6"
      gradientUnits="userSpaceOnUse"
    ><stop stop-color="#0970C8" /><stop
        offset="1"
        stop-color="#542C96"
      /></linearGradient><linearGradient
      id="paint6_linear"
      x1="4.7"
      y1="19.2"
      x2="9.3"
      y2="19.2"
      gradientUnits="userSpaceOnUse"
    ><stop stop-color="#0970C8" /><stop
        offset="1"
        stop-color="#542C96"
      /></linearGradient></defs></svg>
