<svg xmlns="http://www.w3.org/2000/svg" viewBox="0 0 286.8 654.7">
  <path
    d="M153 206l-28 55-84 39c-9 15-38 16-40 6-2-11 35-28 35-28l70-48 6-41 41 17zm-3 373l5 42-30 2-3-44h28z"
    fill="#FFB8B8"
  />
  <path
    d="M145 615l8-9c4-6 8 24 8 24s4 13 3 19-25 6-29 5H79c-27-12 0-21 0-21 8-1 36-27 36-27l7-11c4-1 8 15 8 15l15 5z"
    fill="#000B14"
  />
  <path d="M227 580l6 41-30 3-4-44h28z" fill="#FFB8B8" />
  <path
    d="M223 615l8-9c4-6 8 25 8 25s4 11 3 17-25 7-29 6-25 1-25 1h-31c-27-13 0-21 0-21 8-1 36-27 36-27l6-11c5-1 9 14 9 14l15 5zm-30-303c4 6 2 23 2 23s8 57 4 62 2 10 6 17 6 25 6 25c17 14 16 81 16 81l7 59c-2 6-31 7-36 6s-16-94-16-94l-28-53 2 147c0 6-28 3-34 3s-7-103-7-103l-6-27-33-124v-14l5-8s108-5 112 0z"
    fill="#000B14"
  />
  <path d="M147 77a32 32 0 100-64 32 32 0 000 64z" fill="#FFB8B8" />
  <path
    d="M131 60c7 14 3 35-10 57l53-25-8-7 2-21-37-4z"
    fill="#FFB8B8"
  />
  <path
    d="M131 93c-6 4-11 12-13 19-4 14-7 29-8 44l-2 45-32 118c27 23 43 18 79-1s41 6 41 6 3-1 0-4 0 0 3-3 0 0-1-3 0-1 1-2-4-11-4-11l8-77 10-110c-12-16-47-29-47-29l-32 22c-11 5-3-12-3-12v-2z"
    fill="#0970C8"
  />
  <path
    d="M231 180l4 62-53 76c0 17-10 21-10 21l-9-17c-5-12 3-21 3-21l37-77-16-38 44-6z"
    fill="#FFB8B8"
  />
  <path
    d="M213 114c18 6 21 74 21 74-21-12-46 7-46 7l-11-40a40 40 0 018-38s10-9 28-3z"
    fill="#065FAB"
  />
  <path
    d="M177 55c-4-4-10 2-10 2l-3-29s-20 2-33-1-16 12-16 12V20c1-7 11-14 30-19s29 16 29 16c13 7 7 41 3 38z"
    fill="#2F2E41"
  />
</svg>