<svg width="86" height="76" fill="none" xmlns="http://www.w3.org/2000/svg"><path d="M34.5 15c2.2-.8 3.1-3.4 2.1-5.5l-3.4-7.1c-1-2-3.3-3-5.4-2-5.9 2.4-11 5.7-15 9.7-4.9 4.6-8.2 10-10 15.8C1 32 0 40 0 50.4v21.3c0 2.3 1.9 4.1 4.2 4.1h27.2c2.3 0 4.2-1.8 4.2-4.1V44.4c0-2.3-1.9-4.2-4.2-4.2h-13c.1-7 1.8-12.6 4.8-16.8 2.5-3.4 6.3-6.2 11.3-8.3z" fill="url(#paint0_linear)"/><path d="M83.5 15c2.2-.8 3-3.4 2.1-5.5l-3.4-7c-1-2-3.3-3-5.4-2a50.3 50.3 0 00-15 9.6 37 37 0 00-10 16A86 86 0 0049 50.3v21.3c0 2.3 2 4.1 4.2 4.1h27.3c2.3 0 4.1-1.8 4.1-4.1V44.4c0-2.3-1.8-4.2-4.1-4.2H67.4c.1-7 1.8-12.6 4.8-16.8 2.5-3.4 6.3-6.2 11.3-8.3z" fill="url(#paint1_linear)"/><defs><linearGradient id="paint0_linear" x1="0" y1="37.8" x2="36.1" y2="37.8" gradientUnits="userSpaceOnUse"><stop stop-color="#0970C8"/><stop offset="1" stop-color="#542C96"/></linearGradient><linearGradient id="paint1_linear" x1="49" y1="37.9" x2="85" y2="37.9" gradientUnits="userSpaceOnUse"><stop stop-color="#0970C8"/><stop offset="1" stop-color="#542C96"/></linearGradient></defs></svg>