<svg xmlns="http://www.w3.org/2000/svg" viewBox="0 0 917.6 540.5">
  <g transform="translate(163 -26)" fill="none" stroke="#263238" stroke-linecap="round" stroke-linejoin="round">
    <path d="M384 72c3 10 1-8 6-31s14-13 14-13M383 49l15-6M411 35s-9 19 5 28M424 30s15 8 6 27M414 42l10 8M422 38l-8 14M88 523s-26 0-26 22"/>
    <path d="M86 537c0-3-12-7-14 2s12 3 17-1c0 0-8 8-6 10M88 551s-4 4-7 2M110 536l-19 19s10-9 15-6c7 3-2 14-9 7M120 541s5 24-21 24M469 138l9 2v21l21-37 32 5M502 140l15 25M520 143l-25 19M340 176c-2-3-16-1-13 9s14-3 16-10c0 0-4 13 0 14M351 166l-3 11s1-5 4-5 2 5-2 4M612 302l-6 24 14 15M620 312l17 13M632 308l-7 18M643 323s0 5-2 6M645 306l10 7M659 300l-10 35M659 288l16 18-7 19"/>
    <circle cx="23.3" cy="23.3" r="23.3" transform="rotate(-23 738 -323)"/>
    <circle cx="25.9" cy="25.9" r="25.9" transform="translate(79 299)"/>
    <path d="M83 323l-3 11M88 324l-5 16M93 327l-5 18M98 332l-4 17M101 338l-3 12M57 316c-2-1-8 5-4 8s6-6 5-9c0 0 2 6 4 6M87 286l7 13s-4-6-1-9 8 4 2 6M223 284l11 10M234 282l-9 13M244 285l11-3M260 271l6 5M271 264l-8 28M732 258v-21h16s-9 5-5 16 11 5 11 5M708 391l-1 41 36-17-35-24zM708 391l17 32"/>
    <path d="M722 418l5-2 2 6M395 387l15 16M410 385l-13 17M416 376a4 4 0 014 3c1 3-5 8-5 8h8M163 148a54 54 0 0129-43M205 205a54 54 0 01-33-23M271 157a54 54 0 01-58 49M222 99a54 54 0 0149 46M241 194a48 48 0 01-71-45M173 135a48 48 0 1180 49"/>
    <path d="M213 118l4 35 27-9M629 219a37 37 0 01-26-65M664 194a37 37 0 01-23 23M616 147a37 37 0 0148 23M647 154a33 33 0 11-43 50M597 193a33 33 0 0140-43"/>
    <path d="M616 161l13 21-12 15M-163 440l23-68 28 31-51 37z"/>
    <path d="M-119 408l-6-7 6-5M319 312l18-13 24 2 2 31-18 12-22-1z"/>
    <path d="M323 343l18-13 22 2M341 330l-4-31M319 312l24 3 18-14M343 315l2 29M-22 430a30 30 0 0113-25M30 451a30 30 0 01-51-11M8 400a30 30 0 0130 30"/>
    <path d="M8 456a27 27 0 01-26-26h0M-13 413a27 27 0 1134 40"/>
    <path d="M4 448l4-18-6-15"/>
  </g>
</svg>
