<svg xmlns="http://www.w3.org/2000/svg" xmlns:xlink="http://www.w3.org/1999/xlink" width="614" height="494.95" viewBox="0 0 614 494.95"><defs><linearGradient id="a" x1="0.5" y1="1" x2="0.5" gradientUnits="objectBoundingBox"><stop offset="0" stop-color="gray" stop-opacity="0.251"/><stop offset="0.54" stop-color="gray" stop-opacity="0.122"/><stop offset="1" stop-color="gray" stop-opacity="0.102"/></linearGradient><clipPath id="b"><path d="M420.464,397a153.122,153.122,0,0,0-47.3,49.322c-19.953,32.956-35.422,79.364-11.21,85.193l23.092-.9,44.614-15.245-4.708-8.968s-39.009,20.626-45.735,20.626-15.245,1.569-18.832-1.121,12.779-62.55,47.977-82.5S420.464,397,420.464,397Z" transform="translate(-349.585 -397)" fill="none"/></clipPath><filter id="c" x="86.241" y="302.905" width="153.709" height="172.145" filterUnits="userSpaceOnUse"><feOffset dx="-3" input="SourceAlpha"/><feGaussianBlur stdDeviation="3" result="d"/><feFlood flood-opacity="0.161"/><feComposite operator="in" in2="d"/><feComposite in="SourceGraphic"/></filter><filter id="e" x="92.168" y="300.966" width="147.112" height="98.224" filterUnits="userSpaceOnUse"><feOffset dy="3" input="SourceAlpha"/><feGaussianBlur stdDeviation="3" result="f"/><feFlood flood-opacity="0.161"/><feComposite operator="in" in2="f"/><feComposite in="SourceGraphic"/></filter><clipPath id="g"><path d="M390.643,430.29s59.635,4.932,88.78-2.69a25.11,25.11,0,0,1,8.519,11.882c2.69,8.071,8.071,35.422-8.519,42.6s-76.225,5.381-84.072-2.242-4.708-49.547-4.708-49.547Z" transform="translate(-390.023 -427.6)" fill="none"/></clipPath><filter id="h" x="130.28" y="394.137" width="121.473" height="44.278" filterUnits="userSpaceOnUse"><feOffset dy="3" input="SourceAlpha"/><feGaussianBlur stdDeviation="3" result="i"/><feFlood flood-opacity="0.161"/><feComposite operator="in" in2="i"/><feComposite in="SourceGraphic"/></filter></defs><g transform="translate(229.796)"><ellipse cx="307" cy="39" rx="307" ry="39" transform="translate(-229.796 416.95)" fill="rgba(51,51,51,0.09)"/><path d="M696.186,552.768s-28.568,6.911-39.875,19.842c-3.788,4.321-9.409,7.436-15.212,9.659V562.759c6.536-10.974,13.122-23.181,13.122-23.181.3-.6,2.681-9.017,2.681-9.017,5.362-4.213-.3-18.934-.3-18.934s3.281-9.317,1.49-11.124-.3-6.611,1.19-8.718,1.191-4.813,1.191-6.611-2.381-4.513-6.253-6.012.3-3.905,2.681-4.513,2.981-6.311.3-9.317.3-4.8,1.782-8.11-4.788-2.706-4.788-2.706V424.125h0s-1.79-9.917-3.572-27.352-8.634-19.234-8.634-19.234a78.424,78.424,0,0,1-10.716-4.213,73.4,73.4,0,0,0-11.307-4.2,58.2,58.2,0,0,1-14.588-2.015,44.574,44.574,0,0,0-9.95-2.157l-1.074-.533a38.994,38.994,0,0,1-18.06-19.151c-.183-.416-.35-.833-.516-1.232a42.036,42.036,0,0,0,4.755-6.311v3.48h0v.075c4.746-8.385,18.518-10.3,19.825-19.875a10.005,10.005,0,0,0,.092-1.316v-1.024c-.175-2.673-1.091-5.337-1.266-8.035a15.452,15.452,0,0,1,0-2.323v.05c.616-7.436,6.22-13.905,8.784-21.124a25.323,25.323,0,0,0,1.34-6.012v-.058c.067-.616.108-1.241.125-1.865v-1.757a28.127,28.127,0,0,0-9.284-20.316c-4.746-4.122-11.016-6.711-14.3-12.1-1.532-2.5-2.281-5.462-3.955-7.877-3.147-4.563-8.926-6.42-14.4-7.077s-11.091-.441-16.32-2.156c-3.714-1.216-7.078-3.372-10.824-4.455a20.707,20.707,0,0,0-22.24,8.018c-1.973,2.881-3.264,6.328-5.928,8.576-5.454,4.613-14.7,2.615-19.484,7.927-2.623,2.922-2.923,6.9-2.606,10.966v.15a9.2,9.2,0,0,0,.092.941v.441a1.375,1.375,0,0,0,.058.475c.167,1.457.375,2.906.558,4.3a5.615,5.615,0,0,0,.075.641l.15,1.307a9.119,9.119,0,0,0,.083.949c.033.316.058.833.083,1.182a8.236,8.236,0,0,0,.058.933,64.247,64.247,0,0,1-6.828,32.057c-4.5,8.834-11.2,16.977-12.365,26.844a28.918,28.918,0,0,0-.133,4.871v.575c0,.191.05.583.075.874s.067.674.108,1.008a4.543,4.543,0,0,0,.075.575c.059.441.125.883.2,1.332l.05.283c1.182,6.728,3.863,13.322,5.287,20.117a54.432,54.432,0,0,1,1.066,7.6.11.11,0,0,0,0,.05c.05.833.092,1.624.117,2.44v3.331a52.832,52.832,0,0,1-6.936,2.132c-4.163.6-16.378,11.424-15.487,14.155s-5.462,21.649-5.637,22.223h0l-9.992,69.109s-5.3,5.112-3.647,8.418-.325,9.017-.325,9.017-8.959,3.905-6.969,6.311,1.082,6.911-.283,9.917-3.605,8.418,0,9.317.616,12.631.616,12.631,12.565-1.449,11.657,6.012c-.3,2.373,8.784,8.9,12.573,11.515V589.4a109.806,109.806,0,0,1-14.879-5.054c-7.735-3.606-51.191-10.516-60.716,10.225s13.1,48.393,18.751,51.4c0,0,5.362,4.2,6.553,6.311s8.035,2.706,8.035,2.706,7.144,3.331,8.926,5.1c1.316,1.332,12.2,4.788,25.1,7.494h0s-10.416,23.98,6.578,22.007,25.271-10.341,37.252-10.341c4.788,0,13.68-.674,22.631-1.474a60.152,60.152,0,0,1,6.661,1.574,85.6,85.6,0,0,0,15.47,3.331s13.4,7.211,20.541,5.4a4.538,4.538,0,0,0,1.615-.833h.167c1.3-.325,2.773-1.665,4.3-3.689,8.934.916,19.151,2.215,22.948,3.7,7.4,2.856,60.35-1.1,60.35-1.1s34.205.674,44.005,3.639,6.32-30.267-11.765-34.005a74.209,74.209,0,0,0-14.662-1.449,32.906,32.906,0,0,0,3.422-4.163c6.511-.591,10.824-.958,10.824-.958s17.26-8.418,27.086-13.53a61.8,61.8,0,0,0,16.653-13.222s8.626-5.412,12.2-7.494,5.354-9.018,5.354-9.018C764.937,544.641,696.186,552.768,696.186,552.768Zm-77.5-76.919v-3.031c.966.683.824,1.757,0,3.022Zm.283,21.257c.724.949,1.424,1.815,1.923,2.5,1.923,2.5-1.557,3.664-1.307,7.8.058.924.142,2.215.225,3.647h0c-.366-5.97-.666-10.883-.841-13.955Z" transform="translate(-394.208 -223.253)" fill="url(#a)"/><path d="M464.056,663.765s-16.653-3.872-24.4-7.444-51.191-10.416-60.716,10.125,13.1,47.91,18.751,50.891,60.716-37.81,60.716-37.81l43.431,18.318,8.326-28.426Z" transform="translate(-394.218 -295.058)" fill="#122739"/><rect width="189.068" height="65.77" rx="32.885" transform="translate(88.214 374.36)" fill="#122739"/><path d="M692.767,705.741a32.817,32.817,0,0,1-5.479,18.185A33.306,33.306,0,0,1,683.125,729a32.781,32.781,0,0,1-23.256,9.634H536.589a32.889,32.889,0,0,1,0-65.779H659.878A32.889,32.889,0,0,1,692.767,705.741Z" transform="translate(-415.486 -298.499)" fill="#001323" opacity="0.1"/><path d="M581.93,714.66s-18.959,4.871-34.43,4.654-87.835,29.85-87.835,29.85-10.416,23.747,6.578,21.782,25.271-10.208,37.252-10.208,49.675-4.163,49.675-4.163l36.27-26.794Z" transform="translate(-407.587 -305.495)" fill="#fbbebe"/><path d="M603.444,428.455l-34,6.7-2.206.441s-26.886-7.144-27.777-7.744-25.3-33.48-25.3-33.48,12.34.133,22.032-5.454c.349-.2.691-.416,1.032-.624a21.481,21.481,0,0,0,9.159-11.232c.175-.491.325-1,.466-1.532a30.209,30.209,0,0,0-.283-14.638c-3.33-13.88,4.33-17.7,14.48-17.369,14.663.483,34.621,9.634,34.621,9.634a40.686,40.686,0,0,0,3.139,13.572c.158.4.333.833.516,1.216a38.751,38.751,0,0,0,18.06,18.943l1.074.533c1.082.516,2.223,1.007,3.405,1.449C647.79,398.7,603.444,428.455,603.444,428.455Z" transform="translate(-417.236 -243.379)" fill="#fbbebe"/><path d="M605.72,367.948a42.89,42.89,0,0,1-52.939,9.117c1.465-4.263,1.74-9.567.183-16.17-8.035-33.93,49.126-7.735,49.126-7.735A41.237,41.237,0,0,0,605.72,367.948Z" transform="translate(-423.601 -243.38)" fill="#001323" opacity="0.1"/><path d="M612.14,328.041a42.565,42.565,0,0,1-6.494,22.673,41.97,41.97,0,0,1-4.754,6.253,42.615,42.615,0,0,1-29.026,13.822c-.833.058-1.724.083-2.59.083a42.856,42.856,0,1,1,42.856-42.856Z" transform="translate(-419.288 -233.614)" fill="#fbbebe"/><path d="M603.444,437.19l-34,6.7-2.206.441s-26.886-7.144-27.777-7.743-25.3-33.48-25.3-33.48,12.34.133,22.032-5.454c.349-.2.691-.416,1.032-.624a39.915,39.915,0,0,0,29.009,12.681,41.916,41.916,0,0,0,6.078-.441c4.779-.733,9.6-1.207,14.413-1.665,9.217-.966,23.314-3.763,30.716-11.907l1.074.533c1.082.516,2.223,1.008,3.405,1.449C647.79,407.432,603.444,437.19,603.444,437.19Z" transform="translate(-417.236 -252.114)" fill="#001323" opacity="0.1"/><path d="M633.76,524.187c.291,6.553,5.062,80.358,5.062,80.358H490.3l1.007-46.47.833-37.169.267-12.2,1.19-42.257-4.3-3.8-23.4-20.616h0c.175-.55,6.52-19.359,5.637-22.007s11.316-13.389,15.487-13.988A54.236,54.236,0,0,0,494,403.92c7.019-2.5,16.386-6.095,17.419-5.529,1.457.783,16.061-.574,16.653-.633h0A39.835,39.835,0,0,0,558.1,411.605a40.782,40.782,0,0,0,6.053-.483c4.779-.733,9.6-1.207,14.413-1.707,9.684-1.008,24.737-4.047,31.79-13.156a45.062,45.062,0,0,1,9.95,2.132,59.065,59.065,0,0,0,14.588,2,74.024,74.024,0,0,1,11.307,4.163,79.1,79.1,0,0,0,10.716,4.163s6.844,1.782,8.635,19.042,3.6,27.086,3.6,27.086L633.76,485.494S633.469,517.609,633.76,524.187Z" transform="translate(-409.16 -252.208)" fill="#0970c8"/><path d="M419.724,530.826l5.2,8.335,19.492,6.869,13.4-24.429-12.348-8.335-19.792-7.735-11.307,6.544Z" transform="translate(-362.975 -207.356)" fill="#fbbebe"/><path d="M665.176,654.05s27.677-2.082,38.992-14.879,39.875-19.642,39.875-19.642,68.751-8.035,41.632,52.681c0,0-1.782,6.844-5.354,8.926s-12.2,7.444-12.2,7.444l-105.6-9.226Z" transform="translate(-442.066 -289.515)" fill="#122739"/><path d="M708.526,707.421a32.813,32.813,0,0,1-5.479,18.185c-17.769,1.574-57.119,5.271-65.354,7.569-10.117,2.806-30.591-2.082-32.831-2.631l-.208-.05s-3.947-11.973-5.829-19.634c-.833-3.48-1.274-6.07-.724-6.261,1.79-.591,18.16-5.063,17.86-2.5s49.126-19.2,49.126-19.2l1.515,19.051C671.623,707.7,708.526,699.153,708.526,707.421Z" transform="translate(-431.244 -300.18)" fill="#001323" opacity="0.1"/><path d="M759.778,691.678l-2.082,7.744a61.691,61.691,0,0,1-16.653,13.089c-9.825,5.063-27.086,13.4-27.086,13.4s-63.389,5.354-74.1,8.326-33.039-2.681-33.039-2.681-8.326-25.3-6.545-25.895,18.152-5.054,17.86-2.5,49.126-19.2,49.126-19.2Z" transform="translate(-431.606 -300.357)" fill="#122739"/><path d="M579.92,767.594s31.157,2.173,38.568,5,60.35-1.082,60.35-1.082,34.2.666,44,3.6,6.32-29.975-11.765-33.664-43.572,1.74-43.572,1.74-28.759-3.705-32.248-4.163-26.461.208-26.461.208Z" transform="translate(-428.242 -309.545)" fill="#fbbebe"/><path d="M432.87,674.72s41.183,3.705,52.506,10.458Z" transform="translate(-403.632 -298.811)" fill="#001323" opacity="0.1"/><path d="M732.348,642.28s-32.248,7.843-44.888,19.384Z" transform="translate(-446.24 -293.382)" fill="#001323" opacity="0.1"/><path d="M435.75,663.47c.658.217,18.959,2.615,18.518,4.355S435.75,663.47,435.75,663.47Z" transform="translate(-404.114 -296.928)" fill="#001323" opacity="0.1"/><path d="M401.21,714.9l2.381,8.934s5.354,4.163,6.545,6.245,8.035,2.681,8.035,2.681,7.144,3.272,8.934,5.054,21.124,7.444,39.284,9.825,51.782,6.845,58.926,9.226a85.77,85.77,0,0,0,15.479,3.272s13.389,7.144,20.533,5.362,19.342-34.23,19.342-34.23-47.019-11.007-48.509-14.579-46.728-20.233-46.728-20.233l-26.786.633Z" transform="translate(-398.333 -302.449)" fill="#001323" opacity="0.1"/><path d="M399.06,712.919l2.381,8.934s5.362,4.163,6.553,6.245,8.035,2.681,8.035,2.681,7.144,3.272,8.926,5.063,21.132,7.436,39.284,9.817,51.79,6.844,58.934,9.226a86.031,86.031,0,0,0,15.471,3.264s13.4,7.136,20.541,5.354,19.342-34.23,19.342-34.23-47.027-11.007-48.51-14.579-67.86-30.65-67.86-30.65l-20.816-4.763Z" transform="translate(-397.973 -299.574)" fill="#122739"/><path d="M466.447,447.67l-5.2,2.981L451.252,519.1s-5.3,5.063-3.647,8.326-.325,8.926-.325,8.926-8.959,3.872-6.969,6.253,1.082,6.844-.283,9.817-3.605,8.326,0,9.226.616,12.49.616,12.49,12.565-1.432,11.657,5.945c-.375,2.981,14.2,12.49,14.2,12.49s-16.569-30.058,20.55-25.9l3.189-16.944s3.189-9.542,0-12.49.716-17.111.716-17.111l.7-61.457Z" transform="translate(-404.503 -260.811)" fill="#0970c8"/><path d="M462.44,553.84c.658,1.091,20.7,3.331,22.007,6.886S462.44,553.84,462.44,553.84Z" transform="translate(-408.581 -278.58)" fill="#001323" opacity="0.1"/><path d="M454.85,572.811s2.723-8.5,9.159-6.978S454.85,572.811,454.85,572.811Z" transform="translate(-407.31 -280.557)" fill="#001323" opacity="0.1"/><path d="M450.67,587.048s4.788-11.332,11.324-10.458S450.67,587.048,450.67,587.048Z" transform="translate(-406.611 -282.38)" fill="#001323" opacity="0.1"/><path d="M700.878,586.047l-2.09,12.49s-21.424,39.292-25.3,39.883-24.979-26.187-24.979-26.187l-5.654-26.195,22.256-4.221L675,572.05S699.979,574.44,700.878,586.047Z" transform="translate(-438.776 -281.628)" fill="#fbbebe"/><path d="M694.043,458.787l8.035,5.654V494.5s6.253-.6,4.763,2.681-4.463,5.054-1.782,8.035,2.081,8.626-.3,9.226-6.545,2.973-2.681,4.463,6.253,4.163,6.253,5.953.3,4.463-1.191,6.545-2.972,6.844-1.19,8.635-1.491,11.007-1.491,11.007,5.662,14.588.3,18.751c0,0-2.381,8.326-2.681,8.926,0,0,3.755-28.968-33.689-16.72,0,0-.691-11.041-.949-15.129s3.231-5.287,1.307-7.727-6.736-8.043-4.463-9.525,1.49-4.163.591-6.253-4.038-2.082-1.191-4.613,4.538-4.9,2.864-6.095-4.579-5.071-2.265-6.853,2.381-27.677,2.381-27.677S676.191,440.036,694.043,458.787Z" transform="translate(-442.066 -261.804)" fill="#0970c8"/><path d="M695.84,521.052s11.44-3.106,11.815,0S695.84,521.052,695.84,521.052Z" transform="translate(-447.643 -272.862)" fill="#001323" opacity="0.1"/><path d="M680.4,531.191s15.687-3.922,17.644-.874S680.4,531.191,680.4,531.191Z" transform="translate(-445.058 -274.449)" fill="#001323" opacity="0.1"/><path d="M676.21,541.321s23.53-3.272,25.054,1.524S676.21,541.321,676.21,541.321Z" transform="translate(-444.357 -276.303)" fill="#001323" opacity="0.1"/><path d="M680.4,553.84c.874.217,22.656,1.74,23.089,5.878S680.4,553.84,680.4,553.84Z" transform="translate(-445.058 -278.58)" fill="#001323" opacity="0.1"/><g transform="translate(60.32 288.673)"><rect width="186.578" height="105.97" rx="10.47" fill="#122739"/><circle cx="6.878" cy="6.878" r="6.878" transform="translate(86.411 46.112)" fill="#e7effd"/></g><path d="M507.72,491.94s17.885,13.672,31.715,3.256C539.435,495.2,516.055,497.319,507.72,491.94Z" transform="translate(-416.159 -268.221)" fill="#001323" opacity="0.1"/><path d="M616.48,496.36s17.877,13.664,31.707,3.247C648.187,499.607,624.815,501.739,616.48,496.36Z" transform="translate(-434.361 -268.96)" fill="#001323" opacity="0.1"/><path d="M604.486,328.056a42.564,42.564,0,0,1-6.495,22.673c-.358-11.932-3.164-23.872-9.659-33.839-5.945-9.159-24.022-25.137-36.445-20.683a8.8,8.8,0,0,0-5.429,5.829c-1.232,4.679,2.373,6.661,4.688,10.35a31.732,31.732,0,0,1,4.33,21.382,29.773,29.773,0,0,1-.624,2.964c-1.957,7.344-6.436,15.745-1.815,21.765,3.222,4.163,10.15,5.645,11.091,10.824a6.322,6.322,0,0,1,.083,1.482c-.216,3.505-3.206,6.595-4.513,10.033-1.532,4.055-.666,8.085.924,12.157,2.065,5.312,5.362,10.683,6.162,16.295s-.924,10.824-2.956,16.1c-1.923,5-4.163,9.95-4.913,15.154-1.44,9.892,2.19,21.332-4.038,29.142a4.363,4.363,0,0,1-2.723,1.84c-3.988.416-3.331-6.753-6.52-9.159.341,4.163.666,8.51-.832,12.406s-5.446,7.211-9.576,6.553l-1.424-9.351a27,27,0,0,1-9.908,6.2A72.222,72.222,0,0,1,534.236,450.2c-10.483,5.046-16.594,15.97-22.048,26.245-3.4,6.42-6.919,13.43-5.729,20.6.483,2.923,1.74,5.7,2.015,8.643s-.791,6.378-3.53,7.494c-2.39.974-5.179-.191-6.9-2.14l-.3-.358c-.166-.216-.325-.441-.475-.666a11.2,11.2,0,0,1-.791-1.415,27.39,27.39,0,0,1-1.665-5.47l-.183-.833c-2.773-12.165-5.271-24.713-3.239-37.019.749-4.53,2.115-9.026,1.948-13.622a24.976,24.976,0,0,0-1.565-7.577c-2.431-6.811-7.111-13.064-9.775-19.925a.589.589,0,0,1-.067-.15c-1.4-3.63-2.09-8.168.5-11.082,1.332-1.507,3.331-2.265,5-3.331,5.179-3.372,7.494-9.775,8.451-15.887a54.022,54.022,0,0,0,.649-8.326c7.019-2.5,16.386-6.095,17.419-5.529,1.457.783,16.062-.574,16.653-.633a21.877,21.877,0,0,0,10.225-11.857c.175-.491.325-1,.466-1.532A42.856,42.856,0,1,1,604.494,328.1Z" transform="translate(-411.634 -233.629)" fill="#001323" opacity="0.1"/><path d="M554.851,325.33c-1.965,7.344-6.436,15.745-1.807,21.774,3.222,4.163,10.15,5.637,11.074,10.824.741,4.163-2.931,7.594-4.413,11.507-3.53,9.351,5.679,18.543,7.077,28.443,1.524,10.741-6.3,20.525-7.86,31.257-1.44,9.892,2.19,21.324-4.038,29.142a4.313,4.313,0,0,1-2.723,1.84c-3.988.425-3.331-6.744-6.519-9.159.341,4.163.666,8.51-.833,12.406s-5.445,7.2-9.575,6.553l-1.424-9.359a26.966,26.966,0,0,1-9.908,6.2,72.275,72.275,0,0,1,10.333-27.968c-10.483,5.046-16.586,15.97-22.04,26.236-3.406,6.42-6.919,13.439-5.737,20.608.483,2.923,1.74,5.7,2.015,8.643s-.791,6.37-3.53,7.494c-2.5,1.041-5.52-.341-7.2-2.5s-2.331-4.9-2.939-7.56c-2.848-12.423-5.5-25.246-3.431-37.818.749-4.538,2.115-9.034,1.949-13.622-.358-10.05-7.777-18.318-11.391-27.669-1.407-3.639-2.09-8.168.5-11.082,1.332-1.507,3.331-2.265,5-3.331,5.171-3.381,7.494-9.775,8.443-15.887a55.052,55.052,0,0,0-.558-19.883c-2.09-9.783-6.886-19.342-5.7-29.276,1.166-9.775,7.86-17.835,12.365-26.586a62.9,62.9,0,0,0,6.378-36.761c-.774-5.87-2.132-12.664,1.848-17.052,4.779-5.262,14.03-3.281,19.484-7.843,2.665-2.223,3.955-5.645,5.929-8.493a20.816,20.816,0,0,1,22.24-7.943c3.747,1.074,7.111,3.206,10.824,4.413,5.229,1.665,10.824,1.482,16.32,2.14s11.249,2.5,14.4,7c1.665,2.4,2.423,5.321,3.955,7.8,3.289,5.329,9.559,7.893,14.3,11.982a27.76,27.76,0,0,1,7.81,29.65c-2.831,7.885-9.384,14.863-8.826,23.222.225,3.439,1.665,6.811,1.216,10.216-1.316,9.484-15.079,11.374-19.833,19.684.383-13.622-2.232-27.652-9.667-39.067-5.945-9.159-24.022-25.146-36.445-20.691a8.835,8.835,0,0,0-5.429,5.829c-1.232,4.671,2.373,6.661,4.688,10.35A31.473,31.473,0,0,1,554.851,325.33Z" transform="translate(-411.633 -224.009)" fill="#122739"/><g transform="translate(69.071 35.959)" opacity="0.2"><path d="M498.232,394.067a54.574,54.574,0,0,0-1.191-12.739c-1.773-8.326-5.487-16.478-5.828-24.838-.483,9.309,3.872,18.318,5.828,27.477a54.66,54.66,0,0,1,1.191,10.1Z" transform="translate(-482.461 -281.511)" fill="#001323"/><path d="M537.081,481.982c.724-1.324,1.474-2.639,2.281-3.922-10.475,5.046-16.586,15.97-22.04,26.245-3.156,5.937-6.395,12.4-5.912,19.009.4-5.67,3.189-11.2,5.912-16.337C522.368,497.477,527.98,487.435,537.081,481.982Z" transform="translate(-485.839 -301.857)" fill="#001323"/><path d="M510.422,541.036c-.316,2.248-1.432,4.38-3.48,5.221-2.5,1.033-5.52-.341-7.194-2.5s-2.34-4.9-2.948-7.56c-2.032-8.876-3.963-17.968-4.163-27.019-.2,9.933,1.915,19.942,4.163,29.7.608,2.656,1.266,5.412,2.948,7.56s4.671,3.53,7.194,2.5c2.739-1.124,3.813-4.546,3.539-7.494A1.012,1.012,0,0,1,510.422,541.036Z" transform="translate(-482.703 -307.065)" fill="#001323"/><path d="M569.956,334.2a30.214,30.214,0,0,1-.966,6.328c-1.449,5.437-4.28,11.465-3.772,16.653.4-4.53,2.564-9.459,3.772-14A30.091,30.091,0,0,0,569.956,334.2Z" transform="translate(-494.843 -277.78)" fill="#001323"/><path d="M514.231,283.126a62.469,62.469,0,0,0-.516-9.5c-.308-2.315-.7-4.779-.833-7.186a51.962,51.962,0,0,0,.833,9.867A62.259,62.259,0,0,1,514.231,283.126Z" transform="translate(-486.087 -266.44)" fill="#001323"/><path d="M579.851,384.148a.286.286,0,0,0-.058-.208c-.633,3.1-3.181,5.928-4.354,9.042a12.682,12.682,0,0,0-.733,5.829,11.974,11.974,0,0,1,.733-3.147C576.912,391.742,580.583,388.278,579.851,384.148Z" transform="translate(-496.428 -286.105)" fill="#001323"/><path d="M493.324,473.368c-.366-10.05-7.777-18.318-11.4-27.669a18.965,18.965,0,0,1-1.166-4.579,15.47,15.47,0,0,0,1.166,7.261c3.564,9.226,10.774,17.344,11.357,27.169C493.324,474.825,493.349,474.092,493.324,473.368Z" transform="translate(-480.709 -295.674)" fill="#001323"/><path d="M601.532,313.687c-5.953-9.159-24.021-25.146-36.445-20.691a8.842,8.842,0,0,0-5.437,5.828,6.3,6.3,0,0,0-.092,3.131,1.722,1.722,0,0,1,.092-.45,8.825,8.825,0,0,1,5.437-5.828c12.423-4.455,30.492,11.557,36.445,20.691,6.728,10.341,9.5,22.823,9.684,35.2C611.391,338.291,608.735,324.744,601.532,313.687Z" transform="translate(-493.88 -270.756)" fill="#001323"/><path d="M641.422,341.223c-1.307,9.459-14.987,11.366-19.792,19.625v2.731c4.746-8.326,18.518-10.2,19.825-19.684a11.285,11.285,0,0,0,0-2.806A.711.711,0,0,1,641.422,341.223Z" transform="translate(-504.294 -278.933)" fill="#001323"/><path d="M652.759,299.57c-2.831,7.893-9.384,14.863-8.826,23.231v.366c.616-7.369,6.22-13.764,8.784-20.916a26.218,26.218,0,0,0,1.457-10.192A25.453,25.453,0,0,1,652.759,299.57Z" transform="translate(-508.021 -270.728)" fill="#001323"/><path d="M567.942,498.822a4.33,4.33,0,0,1-2.723,1.848c-3.988.425-3.331-6.744-6.519-9.159.083.949.158,1.907.208,2.864,2.964,2.565,2.415,9.384,6.311,8.967a4.287,4.287,0,0,0,2.723-1.84c3.555-4.463,3.9-10.1,3.805-15.953C571.656,490.429,570.948,495.084,567.942,498.822Z" transform="translate(-493.762 -303.11)" fill="#001323"/><path d="M553.486,506.447c-1.515,3.9-5.446,7.211-9.584,6.553q-.708-4.671-1.416-9.359a27.16,27.16,0,0,1-9.417,6.02c-.183.949-.358,1.907-.5,2.864a26.994,26.994,0,0,0,9.917-6.2q.708,4.688,1.416,9.359c4.163.649,8.068-2.648,9.584-6.553a21.337,21.337,0,0,0,1.091-8.468A18.01,18.01,0,0,1,553.486,506.447Z" transform="translate(-489.389 -305.639)" fill="#001323"/><path d="M574.573,461.049a47.56,47.56,0,0,0-.358,7.585,37.941,37.941,0,0,1,.358-4.9c1.49-10.233,8.66-19.6,8.01-29.75C582.008,443.156,575.93,451.724,574.573,461.049Z" transform="translate(-496.354 -294.48)" fill="#001323"/></g><g transform="translate(-531.381 -83.663)"><path d="M420.464,397a153.122,153.122,0,0,0-47.3,49.322c-19.953,32.956-35.422,79.364-11.21,85.193l23.092-.9,44.614-15.245-4.708-8.968s-39.009,20.626-45.735,20.626-15.245,1.569-18.832-1.121,12.779-62.55,47.977-82.5S420.464,397,420.464,397Z" transform="translate(0 18.198)" fill="#0970c8"/><g transform="translate(349.585 415.198)" clip-path="url(#b)"><path d="M420.464,397a153.122,153.122,0,0,0-47.3,49.322c-19.953,32.956-35.422,79.364-11.21,85.193l23.092-.9,44.614-15.245-4.708-8.968s-39.009,20.626-45.735,20.626-15.245,1.569-18.832-1.121,12.779-62.55,47.977-82.5S420.464,397,420.464,397Z" transform="translate(-349.585 -397)" fill="#0970c8" opacity="0.5"/></g><path d="M420.464,397a153.122,153.122,0,0,0-47.3,49.322c-19.953,32.956-35.422,79.364-11.21,85.193l23.092-.9,44.614-15.245-4.708-8.968s-39.009,20.626-45.735,20.626-15.245,1.569-18.832-1.121,12.779-62.55,47.977-82.5S420.464,397,420.464,397Z" transform="translate(0 18.198)" fill="none"/><path d="M392.5,393.675s0-9.64,14.8-11.21,16.59,13,16.59,13h-4.932s0-8.519-10.761-9.192-10.313,8.968-10.313,8.968Z" transform="translate(53.298 0)" fill="#0970c8"/><g transform="matrix(1, 0, 0, 1, 301.58, 83.66)" filter="url(#c)"><path d="M396.444,542.389c-30.939,0-25.11-139-21.523-145.725s93.264-10.313,102.232-7.4,44.39,141.241,24.661,152.451Z" transform="translate(-273.75 -76.34)" fill="#0970c8"/></g><path d="M396.444,542.389c-30.939,0-25.11-139-21.523-145.725s93.264-10.313,102.232-7.4,44.39,141.241,24.661,152.451Z" transform="translate(27.831 7.324)" fill="none"/><g transform="matrix(1, 0, 0, 1, 301.58, 83.66)" filter="url(#e)"><path d="M373.3,399.4c11.21,2.242,17.487,47.753,32.732,59.187s86.09,8.968,94.161,0-7.623-60.084-19.056-67.706-19.5-.224-51.564-3.811c-47.753-5.381-56.272,12.106-56.272,12.106Z" transform="translate(-272.13 -79.08)" fill="#005aa7"/></g><path d="M417.051,403.762l13.227,10.761a1.794,1.794,0,0,1,0,2.466L420.19,428.2a1.794,1.794,0,0,1-2.466,0l-13.452-12.331a1.794,1.794,0,0,1,0-2.466l10.313-9.416a1.794,1.794,0,0,1,2.242-.224Z" transform="translate(67.308 26.232)" fill="#0970c8"/><path d="M390.643,430.29s59.635,4.932,88.78-2.69a25.11,25.11,0,0,1,8.519,11.882c2.69,8.071,8.071,35.422-8.519,42.6s-76.225,5.381-84.072-2.242-4.708-49.547-4.708-49.547Z" transform="translate(50.222 56.2)" fill="#1c87e2"/><g transform="translate(440.245 483.8)" clip-path="url(#g)"><path d="M390.643,430.29s59.635,4.932,88.78-2.69a25.11,25.11,0,0,1,8.519,11.882c2.69,8.071,8.071,35.422-8.519,42.6s-76.225,5.381-84.072-2.242-4.708-49.547-4.708-49.547Z" transform="translate(-390.023 -427.6)" fill="none" opacity="0.4"/></g><g transform="matrix(1, 0, 0, 1, 301.58, 83.66)" filter="url(#h)"><path d="M390.3,430.29s6.95,18.832,10.761,21.747,80.934,2.914,89.677-4.035-3.363-19.729-11.658-20.4c0,0-54.255,6.277-88.78,2.69Z" transform="translate(-251.02 -27.46)" fill="#005aa7"/></g></g></g></svg>